<?xml version="1.0" encoding="UTF-8"?><svg id="_Слой_2" xmlns="http://www.w3.org/2000/svg" viewBox="0 0 693.67 707.98"><defs><style>.cls-1{fill:#007a7a;stroke-width:0px;}</style></defs><g id="_Слой_1-2"><path class="cls-1" d="m676.38,407.02c-56.44-41.26-112.81-82.68-168.09-125.5-18.56-14.37-29.49-13.51-48.45.46-38,28-48,35-69,49-3.5,3.5-16,8-16-11.38,0-60.62,3-60.62-29-60.62-22.83,0-28-1-28,28v79c0,21-15,28-28,38-11,8-8.04,5.94-15,11-11,8-26,23.01-2,23.01,19.57,0,33.41,2.21,43.57-5.02,66-47,85.49-60.48,138.43-98.98,11-8,40.29-9.29,51.29-.29,28.71,20.29,51.9,35.01,87.28,60.28,29.43,21.02,22.43,30.02,14.43,52.02-9.95,27.37-18,47-39,76-12.37,17.09-25,21-25.83-9-.44-15.99,0,9.97,0-18,0-71-7.17-72.99-69.73-72.99-54.27,0-63.27,1.99-63.27,73.98,0,0,1,89.01,1,105,0,28.02-27.02,33.82-40,35-154.17,14.01-300-108-300-282,0-144,116-282.49,281-282,121.83.36,188.83,81.01,202.83,96.01,24.61,26.37,30,20.99,77.17,20.99,54,0-3-58-33-89C554.74,54.25,468,0,352.41,0,192,0,0,123.98,0,353.98c0,174,136,354,357,354,143,0,248-76,319-205,15.32-27.84,30.41-74.01.38-95.96Zm-239.21,135.96c-4.42,0-8-6.72-8-15s3.58-15,8-15,8,6.72,8,15-3.58,15-8,15Z"/></g></svg>